<?xml version="1.0" encoding="UTF-8" standalone="no"?>
<svg
   width="420"
   height="320"
   viewBox="0 0 420 320"
   version="1.1"
   id="svg2009"
   sodipodi:docname="contact_unified.svg"
   inkscape:version="1.2.2 (b0a84865, 2022-12-01)"
   xmlns:inkscape="http://www.inkscape.org/namespaces/inkscape"
   xmlns:sodipodi="http://sodipodi.sourceforge.net/DTD/sodipodi-0.dtd"
   xmlns:xlink="http://www.w3.org/1999/xlink"
   xmlns="http://www.w3.org/2000/svg"
   xmlns:svg="http://www.w3.org/2000/svg">
  <sodipodi:namedview
     id="namedview2011"
     pagecolor="#ffffff"
     bordercolor="#000000"
     borderopacity="0.25"
     inkscape:showpageshadow="2"
     inkscape:pageopacity="0.0"
     inkscape:pagecheckerboard="0"
     inkscape:deskcolor="#d1d1d1"
     showgrid="false"
     inkscape:zoom="1.8188686"
     inkscape:cx="122.32879"
     inkscape:cy="212.76963"
     inkscape:window-width="1920"
     inkscape:window-height="1080"
     inkscape:window-x="1728"
     inkscape:window-y="0"
     inkscape:window-maximized="0"
     inkscape:current-layer="svg2009" />
  <defs
     id="defs1913">
    <linearGradient
       id="env-teal"
       x1="0%"
       y1="0%"
       x2="100%"
       y2="100%"
       gradientUnits="objectBoundingBox">
      <stop
         offset="0%"
         style="stop-color:#0D9488;stop-opacity:1;"
         id="stop1853" />
      <stop
         offset="100%"
         style="stop-color:#14B8A6;stop-opacity:1;"
         id="stop1855" />
    </linearGradient>
    <linearGradient
       id="env-teal-h"
       x1="0%"
       y1="0%"
       x2="100%"
       y2="0%"
       gradientUnits="objectBoundingBox">
      <stop
         offset="0%"
         style="stop-color:#0D9488;stop-opacity:1;"
         id="stop1858" />
      <stop
         offset="100%"
         style="stop-color:#14B8A6;stop-opacity:1;"
         id="stop1860" />
    </linearGradient>
    <linearGradient
       id="env-amber"
       x1="27.981086"
       y1="271.25466"
       x2="71.224583"
       y2="271.25466"
       gradientUnits="userSpaceOnUse"
       gradientTransform="matrix(1.9656135,0,0,0.50874702,59.999999,65)">
      <stop
         offset="0%"
         style="stop-color:#F59E0B;stop-opacity:1;"
         id="stop1863" />
      <stop
         offset="100%"
         style="stop-color:#FBBF24;stop-opacity:1;"
         id="stop1865" />
    </linearGradient>
    <filter
       id="sh-main"
       x="-4.8"
       y="-inf"
       width="10.6"
       height="inf">
      <feGaussianBlur
         in="SourceAlpha"
         stdDeviation="10"
         result="blur"
         id="feGaussianBlur1868" />
      <feOffset
         in="blur"
         dx="0"
         dy="6"
         result="offsetBlur"
         id="feOffset1870" />
      <feFlood
         flood-color="#0F766E"
         flood-opacity="0.14"
         result="color"
         id="feFlood1872" />
      <feComposite
         in="color"
         in2="offsetBlur"
         operator="in"
         result="shadow"
         id="feComposite1874" />
      <feMerge
         id="feMerge1880">
        <feMergeNode
           in="shadow"
           id="feMergeNode1876" />
        </feMerge>
    </filter>
    <filter
       id="sh-sm"
       x="-0.2296875"
       y="-0.2296875"
       width="1.459375"
       height="1.50625">
      <feGaussianBlur
         in="SourceAlpha"
         stdDeviation="6"
         result="blur"
         id="feGaussianBlur1883" />
      <feOffset
         in="blur"
         dx="0"
         dy="3"
         result="offsetBlur"
         id="feOffset1885" />
      <feFlood
         flood-color="#0F766E"
         flood-opacity="0.1"
         result="color"
         id="feFlood1887" />
      <feComposite
         in="color"
         in2="offsetBlur"
         operator="in"
         result="shadow"
         id="feComposite1889" />
      <feMerge
         id="feMerge1895">
        <feMergeNode
           in="shadow"
           id="feMergeNode1891" />
        </feMerge>
    </filter>
    <filter
       id="sh-xs"
       x="-0.92044944"
       y="-inf"
       width="2.8408989"
       height="inf">
      <feGaussianBlur
         in="SourceAlpha"
         stdDeviation="3"
         result="blur"
         id="feGaussianBlur1898" />
      <feOffset
         in="blur"
         dx="0"
         dy="2"
         result="offsetBlur"
         id="feOffset1900" />
      <feFlood
         flood-color="#1a1a2e"
         flood-opacity="0.07"
         result="color"
         id="feFlood1902" />
      <feComposite
         in="color"
         in2="offsetBlur"
         operator="in"
         result="shadow"
         id="feComposite1904" />
      <feMerge
         id="feMerge1910">
        <feMergeNode
           in="shadow"
           id="feMergeNode1906" />
        </feMerge>
    </filter>
    <linearGradient
       inkscape:collect="always"
       xlink:href="#env-teal"
       id="linearGradient2136"
       gradientUnits="userSpaceOnUse"
       x1="0"
       y1="8.660254"
       x2="138.56406"
       y2="147.22432"
       gradientTransform="matrix(2.1650635,0,0,0.46188022,60,65)" />
    <linearGradient
       inkscape:collect="always"
       xlink:href="#env-teal-h"
       id="linearGradient2138"
       gradientUnits="userSpaceOnUse"
       x1="13.84699"
       y1="50.552503"
       x2="104.8415"
       y2="50.552503"
       gradientTransform="matrix(2.5276251,0,0,0.39562828,59.999999,65)" />
    <linearGradient
       inkscape:collect="always"
       xlink:href="#env-teal-h"
       id="linearGradient2140"
       gradientUnits="userSpaceOnUse"
       x1="8.6351154"
       y1="170.23513"
       x2="65.380159"
       y2="170.23513"
       gradientTransform="matrix(4.0532174,0,0,0.24671758,59.999999,65)" />
  </defs>
  <!-- ===== MAIN ENVELOPE ===== -->
  <use href="#rect1915" style="filter:url(#sh-main)" />
  <rect
     x="60"
     y="120"
     width="300"
     height="180"
     rx="16"
     ry="16"
     style="fill:#ffffff;stroke:#e2e8f0;stroke-width:0.8;"
     id="rect1915" />
  <use href="#rect1917" style="filter:url(#sh-main)" />
  <rect
     x="60"
     y="120"
     width="5"
     height="180"
     rx="3"
     ry="3"
     style="fill:#0d9488;stroke:none;"
     id="rect1917" />
  <use href="#path1919" style="filter:url(#sh-main)" />
  <path
     d="M 62.5,124.77044 210,60 360,124"
     style="fill:url(#linearGradient2136);stroke:none;"
     id="path1919"
     sodipodi:nodetypes="ccc" />
  <use href="#line1921" style="filter:url(#sh-main)" />
  <line
     x1="60"
     y1="133"
     x2="360"
     y2="133"
     style="stroke:#0f766e;stroke-width:0.6;stroke-opacity:0.15;"
     id="line1921" />
  <use href="#path1923" style="filter:url(#sh-main)" />
  <path
     d="m 65,300 145,-87 144.69867,82.91656"
     style="fill:none;stroke:#e2e8f0;stroke-width:1;"
     id="path1923"
     sodipodi:nodetypes="ccc" />
  <use href="#rect1925" style="filter:url(#sh-xs)" />
  <rect
     x="149.23056"
     y="105.814"
     width="230"
     height="150"
     rx="10"
     ry="10"
     style="fill:#ffffff;stroke:#e2e8f0;stroke-width:0.6;"
     id="rect1925" />
  <use href="#rect1927" style="filter:url(#sh-xs)" />
  <rect
     x="149.23056"
     y="105.814"
     width="230"
     height="36"
     rx="10"
     ry="10"
     style="fill:url(#linearGradient2138);stroke:none;"
     id="rect1927" />
  <use href="#rect1929" style="filter:url(#sh-xs)" />
  <rect
     x="149.23056"
     y="127.814"
     width="230"
     height="14"
     style="fill:url(#linearGradient2140);stroke:none;"
     id="rect1929" />
  <use href="#circle1931" style="filter:url(#sh-xs)" />
  <circle
     cx="176.23056"
     cy="123.814"
     r="10"
     style="fill:#ffffff;fill-opacity:0.2;stroke:none;"
     id="circle1931" />
  <use href="#text1933" style="filter:url(#sh-xs)" />
  <text
     x="176.23056"
     y="128.814"
     style="font-weight:800;font-size:12px;font-family:Nunito, sans-serif;text-anchor:middle;fill:#ffffff;fill-opacity:0.65;"
     id="text1933">H</text>
  <use href="#rect1935" style="filter:url(#sh-xs)" />
  <rect
     x="196.23056"
     y="117.814"
     width="55"
     height="5"
     rx="2.5"
     ry="2.5"
     style="fill:#ffffff;fill-opacity:0.7;stroke:none;"
     id="rect1935" />
  <use href="#rect1937" style="filter:url(#sh-xs)" />
  <rect
     x="196.23056"
     y="127.814"
     width="35"
     height="3.5"
     rx="1.75"
     ry="1.75"
     style="fill:#ffffff;fill-opacity:0.35;stroke:none;"
     id="rect1937" />
  <use href="#rect1939" style="filter:url(#sh-xs)" />
  <rect
     x="169.23056"
     y="155.814"
     width="120"
     height="5"
     rx="2.5"
     ry="2.5"
     style="fill:#1a1a2e;fill-opacity:0.35;stroke:none;"
     id="rect1939" />
  <use href="#rect1941" style="filter:url(#sh-xs)" />
  <rect
     x="169.23056"
     y="167.814"
     width="180"
     height="4"
     rx="2"
     ry="2"
     style="fill:#94a3b8;fill-opacity:0.22;stroke:none;"
     id="rect1941" />
  <use href="#rect1943" style="filter:url(#sh-xs)" />
  <rect
     x="169.23056"
     y="177.814"
     width="160"
     height="4"
     rx="2"
     ry="2"
     style="fill:#94a3b8;fill-opacity:0.18;stroke:none;"
     id="rect1943" />
  <use href="#rect1945" style="filter:url(#sh-xs)" />
  <rect
     x="169.23056"
     y="187.814"
     width="170"
     height="4"
     rx="2"
     ry="2"
     style="fill:#94a3b8;fill-opacity:0.15;stroke:none;"
     id="rect1945" />
  <use href="#rect1947" style="filter:url(#sh-xs)" />
  <rect
     x="169.23056"
     y="197.814"
     width="100"
     height="4"
     rx="2"
     ry="2"
     style="fill:#94a3b8;fill-opacity:0.12;stroke:none;"
     id="rect1947" />
  <use href="#line1949" style="filter:url(#sh-xs)" />
  <line
     x1="169.23056"
     y1="213.814"
     x2="354.23056"
     y2="213.814"
     style="stroke:#e2e8f0;stroke-width:0.6;"
     id="line1949" />
  <use href="#rect1951" style="filter:url(#sh-xs)" />
  <rect
     x="221.73058"
     y="226.01399"
     width="85"
     height="22"
     rx="8"
     ry="8"
     style="fill:url(#env-amber);stroke:none;"
     id="rect1951" />
  <use href="#text1953" style="filter:url(#sh-xs)" />
  <text
     x="263.73056"
     y="241.01399"
     style="font-weight:700;font-size:8px;font-family:Nunito, sans-serif;text-anchor:middle;fill:#ffffff;"
     id="text1953">¡Recibido!</text>
  <!-- ===== @ BADGE (overlapping envelope, top-left) ===== -->
  <g transform="translate(42, 58)">
    <use href="#g1969" style="filter:url(#sh-sm)" />
    <g
     style=""
    
     id="g1969">
    <circle
       cx="0"
       cy="0"
       r="32"
       style="fill:#ffffff;stroke:#e2e8f0;stroke-width:0.6"
       id="circle1963" />
    <circle
       cx="0"
       cy="0"
       r="25"
       style="fill:url(#env-teal);stroke:none"
       id="circle1965" />
    <text
       x="0"
       y="10"
       style="font-family:Nunito,sans-serif;font-weight:800;font-size:28px;fill:#ffffff;text-anchor:middle"
       id="text1967">@</text>
  </g>
  </g>
  <!-- ===== PHONE BADGE (overlapping envelope, bottom-right) ===== -->
  <g transform="translate(62.499999,276.40625)">
    <use href="#g1979" style="filter:url(#sh-sm)" />
    <g
     style=""
    
     id="g1979">
    <circle
       cx="0"
       cy="0"
       r="34"
       style="fill:#ffffff;stroke:#e2e8f0;stroke-width:0.6"
       id="circle1971" />
    <circle
       cx="0"
       cy="0"
       r="27"
       style="fill:#b7e4e0;stroke:none;fill-opacity:1"
       id="circle1973" />
    <!-- Phone handset icon (from phone-call SVG) -->
    <g
       transform="translate(-12,-12)"
       id="g1977">
      <path
         d="m 14.05,6 c 0.9768,0.19057 1.8744,0.66826 2.5781,1.37194 C 17.3318,8.07561 17.8095,8.97326 18,9.95 M 14.05,2 c 2.0293,0.22544 3.9216,1.13417 5.3663,2.57701 C 20.8609,6.01984 21.7721,7.91101 22,9.94 M 18.5,21 C 9.93959,21 3,14.0604 3,5.5 3,5.11378 3.01413,4.73086 3.04189,4.35173 3.07375,3.91662 3.08968,3.69907 3.2037,3.50103 3.29814,3.33701 3.4655,3.18146 3.63598,3.09925 3.84181,3 4.08188,3 4.56201,3 h 2.81731 c 0.40376,0 0.60564,0 0.7787,0.06645 0.15287,0.0587 0.28899,0.15404 0.3964,0.27765 0.12159,0.13993 0.19058,0.32966 0.32857,0.70911 l 1.16611,3.20684 c 0.1605,0.44148 0.2408,0.66222 0.2272,0.87165 -0.012,0.18467 -0.0751,0.36238 -0.1821,0.51336 C 9.97286,8.81628 9.77145,8.93713 9.36863,9.17882 L 8,10 c 1.2019,2.6489 3.3501,4.7999 6,6 l 0.8212,-1.3686 c 0.2417,-0.4029 0.3625,-0.6043 0.5337,-0.7256 0.151,-0.107 0.3287,-0.1701 0.5134,-0.1821 0.2094,-0.0136 0.4302,0.0667 0.8717,0.2272 l 3.2068,1.1661 c 0.3794,0.138 0.5692,0.207 0.7091,0.3286 0.1236,0.1074 0.219,0.2435 0.2776,0.3964 C 21,16.015 21,16.2169 21,16.6207 v 2.8173 c 0,0.4801 0,0.7202 -0.0993,0.926 -0.0822,0.1705 -0.2377,0.3379 -0.4017,0.4323 -0.1981,0.114 -0.4156,0.1299 -0.8507,0.1618 C 19.2691,20.9859 18.8862,21 18.5,21 Z"
         style="fill:none;stroke:#ffffff;stroke-width:2;stroke-linecap:round;stroke-linejoin:round;stroke-opacity:0.9"
         id="path1975" />
    </g>
    <!-- (ring arcs built into phone icon) -->
  </g>
  </g>
  <!-- ===== PAPER PLANE (floating, top-right) ===== -->
  <g transform="rotate(53.795089,113.69283,328.16834)">
    <use href="#g1987" style="filter:url(#sh-xs)" />
    <g
     style=""
    
     id="g1987">
    <path
       d="M 0,18 10,10 28,0 Z"
       style="fill:#14b8a6;fill-opacity:0.55;stroke:none"
       id="path1981" />
    <path
       d="m 28,0 -18,10 3,10 5,-8 z"
       style="fill:#0d9488;fill-opacity:0.65;stroke:none"
       id="path1983" />
    <path
       d="M 0,18 28,0 10,10 Z"
       style="fill:#0d9488;fill-opacity:0.45;stroke:none"
       id="path1985" />
  </g>
  </g>
  <!-- Trail from paper plane -->
  <path
     d="m 299.80247,59.897512 q -14.72659,-3.889407 -25.42849,5.778541"
     style="fill:none;stroke:#14b8a6;stroke-width:1.5;stroke-linecap:round;stroke-dasharray:3, 4;stroke-opacity:0.15"
     id="path1989" />
  <path
     d="m 270.70924,68.239195 q -8.49872,-2.787811 -13.55736,4.024687"
     style="fill:none;stroke:#14b8a6;stroke-width:1.2;stroke-linecap:round;stroke-dasharray:2, 4;stroke-opacity:0.1"
     id="path1991" />
  <!-- ===== AMBER NOTIFICATION DOT (top, between @ and plane) ===== -->
  <g transform="translate(58.776628,32.986004)">
    <use href="#g1997" style="filter:url(#sh-xs)" />
    <g
     style=""
    
     id="g1997">
    <circle
       cx="0"
       cy="0"
       r="10"
       style="fill:#f59e0b;stroke:none"
       id="circle1993" />
    <text
       x="0"
       y="4"
       style="font-weight:800;font-size:10px;font-family:Nunito, sans-serif;text-anchor:middle;fill:#ffffff"
       id="text1995">1</text>
  </g>
  </g>
  <!-- ===== Decorative dots ===== -->
  <circle
     cx="18"
     cy="160"
     r="3"
     style="fill:#14B8A6;fill-opacity:0.12;stroke:none"
     id="circle1999" />
  <circle
     cx="410"
     cy="140"
     r="2.5"
     style="fill:#F59E0B;fill-opacity:0.1;stroke:none"
     id="circle2001" />
  <circle
     cx="381.07455"
     cy="300.90625"
     r="2.5"
     style="fill:#0d9488;fill-opacity:0.08;stroke:none"
     id="circle2003" />
  <circle
     cx="390"
     cy="290"
     r="3"
     style="fill:#14B8A6;fill-opacity:0.08;stroke:none"
     id="circle2005" />
  <circle
     cx="30"
     cy="280"
     r="2"
     style="fill:#F59E0B;fill-opacity:0.1;stroke:none"
     id="circle2007" />
  <g
     id="layer1"
     transform="matrix(2.0085959,0,0,2.0085959,-48.92479,-1.3350188)"
     style="stroke-width:1.88168">
    <path
       d="m 204.03327,64.143626 c -0.15088,0.0251 -0.22423,0.43692 -0.28799,0.70383 -0.0782,0.32717 -0.3262,0.5858 -0.76125,0.79375 -0.88127,0.42125 -0.90271,0.66893 -0.0936,1.08169 0.49504,0.25255 0.73538,0.51499 0.85564,0.93431 0.23934,0.83451 0.68871,0.84488 1.07485,0.0248 0.21085,-0.44779 0.53694,-0.77593 0.977,-0.98314 0.82806,-0.3899 0.84192,-0.75017 0.0391,-1.01514 -0.44282,-0.14614 -0.72094,-0.40013 -0.96762,-0.88365 -0.40874,-0.80121 -0.46346,-0.71856 -0.83607,-0.65646 z m -4.83946,0.28365 c -0.15154,-0.17337 -0.36557,-0.59613 -0.47562,-0.93947 -0.19531,-0.60935 -0.95375,-1.10191 -1.47598,-1.22782 -0.27887,-0.0672 -0.86406,-0.60873 -0.74754,-0.91237 0.0544,-0.1418 0.49041,-0.42322 0.96887,-0.62536 0.77247,-0.32636 0.91951,-0.47963 1.31238,-1.36798 0.37183,-0.840769 0.50644,-0.991368 0.84337,-0.943554 0.28837,0.04092 0.52073,0.316532 0.82771,0.981774 0.38028,0.82407 0.52446,0.96125 1.32292,1.25869 0.51766,0.19284 0.92127,0.4596 0.95568,0.63165 0.0827,0.4136 -0.41841,0.91662 -1.03624,1.04019 -0.64095,0.12819 -1.05951,0.59316 -1.40973,1.56604 -0.29937,0.8316 -0.66914,1.01489 -1.08582,0.53821 z"
       style="fill:#f59e0b;fill-opacity:1;stroke-width:1.88168"
       id="path1908-4" />
  </g>
</svg>
