<?xml version="1.0" encoding="UTF-8" standalone="no"?>
<!-- Created with Inkscape (http://www.inkscape.org/) -->

<svg
   width="133.60016mm"
   height="131.60034mm"
   viewBox="0 0 133.60016 131.60034"
   version="1.1"
   id="svg561"
   xmlns:xlink="http://www.w3.org/1999/xlink"
   xmlns="http://www.w3.org/2000/svg"
   xmlns:svg="http://www.w3.org/2000/svg">
  <defs
     id="defs558">
    <linearGradient
       id="linearGradient1835">
      <stop
         style="stop-color:#2667f7;stop-opacity:1;"
         offset="0"
         id="stop1831" />
      <stop
         style="stop-color:#ffffff;stop-opacity:1;"
         offset="1"
         id="stop1833" />
    </linearGradient>
    <linearGradient
       xlink:href="#linearGradient1835"
       id="linearGradient2171"
       gradientUnits="userSpaceOnUse"
       x1="213.78661"
       y1="211.63731"
       x2="142.35359"
       y2="241.45779"
       gradientTransform="matrix(1.6216003,0,0,1.6216025,147.31778,1.0466631)" />
    <filter
       style="color-interpolation-filters:sRGB"
       id="filter12369"
       x="-0.039999951"
       y="-0.056666516"
       width="1.1133332"
       height="1.0966665">
      <feFlood
         flood-opacity="0.0901961"
         flood-color="rgb(0,0,0)"
         result="flood"
         id="feFlood12359" />
      <feComposite
         in="flood"
         in2="SourceGraphic"
         operator="in"
         result="composite1"
         id="feComposite12361" />
      <feGaussianBlur
         in="composite1"
         stdDeviation="2"
         result="blur"
         id="feGaussianBlur12363" />
      <feOffset
         dx="4"
         dy="-2"
         result="offset"
         id="feOffset12365" />
      <feComposite
         in="SourceGraphic"
         in2="offset"
         operator="over"
         result="composite2"
         id="feComposite12367" />
    </filter>
  </defs>
  <g
     id="layer1"
     transform="translate(-370.21388,-266.28375)">
    <path
       style="fill:url(#linearGradient2171);fill-opacity:1;stroke:none;stroke-width:1.298;stroke-linecap:round;stroke-linejoin:round;stroke-opacity:1;filter:url(#filter12369)"
       id="rect1798-5"
       width="119.99842"
       height="119.99859"
       x="375.01474"
       y="273.08463"
       ry="9.6228085"
       d="m 387.28338,273.08463 h 95.46114 c 1.46125,0 3.85638,-0.036 5.25928,0.35631 3.22267,0.90114 5.75191,3.43038 6.65305,6.65305 0.39229,1.4029 0.35631,3.79802 0.35631,5.25928 v 95.4613 c 0,1.46126 0.036,3.85638 -0.35631,5.25929 -0.90115,3.22266 -3.43039,5.7519 -6.65305,6.65304 -1.40291,0.39229 -3.79803,0.35631 -5.25928,0.35631 h -95.46114 c -1.46125,0 -3.85638,0.036 -5.25928,-0.35631 -3.22267,-0.90114 -5.75191,-3.43039 -6.65305,-6.65305 -0.39229,-1.4029 -0.35631,-3.79802 -0.35631,-5.25928 v -95.4613 c 0,-1.46126 -0.036,-3.85638 0.35631,-5.25929 0.90115,-3.22266 3.43039,-5.7519 6.65305,-6.65304 1.40291,-0.39229 3.79803,-0.35631 5.25928,-0.35631 z" />
    <text
       xml:space="preserve"
       style="font-size:105.833px;font-family:'Heiti TC';-inkscape-font-specification:'Heiti TC';text-align:center;text-anchor:middle;fill:#ffffff;fill-opacity:1;stroke:none;stroke-width:1.298;stroke-linecap:round;stroke-linejoin:round;stroke-opacity:1"
       x="435.06686"
       y="379.70337"
       id="text2228"><tspan
         id="tspan2226"
         style="font-size:105.833px;fill:#ffffff;fill-opacity:1;stroke-width:1.298"
         x="435.06686"
         y="379.70337">A</tspan></text>
  </g>
</svg>
