<?xml version="1.0" encoding="UTF-8" standalone="no"?>
<!-- Created with Inkscape (http://www.inkscape.org/) -->

<svg
   width="600.71222mm"
   height="465.79709mm"
   viewBox="0 0 600.71222 465.79709"
   version="1.1"
   id="svg45435"
   xml:space="preserve"
   sodipodi:docname="motor.svg"
   inkscape:version="1.2.2 (b0a84865, 2022-12-01)"
   xmlns:inkscape="http://www.inkscape.org/namespaces/inkscape"
   xmlns:sodipodi="http://sodipodi.sourceforge.net/DTD/sodipodi-0.dtd"
   xmlns="http://www.w3.org/2000/svg"
   xmlns:svg="http://www.w3.org/2000/svg"><sodipodi:namedview
     id="namedview7065"
     pagecolor="#ffffff"
     bordercolor="#000000"
     borderopacity="0.25"
     inkscape:showpageshadow="2"
     inkscape:pageopacity="0.0"
     inkscape:pagecheckerboard="0"
     inkscape:deskcolor="#d1d1d1"
     inkscape:document-units="mm"
     showgrid="false"
     inkscape:zoom="0.36308369"
     inkscape:cx="751.89278"
     inkscape:cy="950.19417"
     inkscape:window-width="1920"
     inkscape:window-height="1080"
     inkscape:window-x="1728"
     inkscape:window-y="0"
     inkscape:window-maximized="0"
     inkscape:current-layer="svg45435" /><defs
     id="defs45432"><rect
       x="128.27515"
       y="437.30167"
       width="546.14117"
       height="110.78309"
       id="rect68253" /><rect
       x="-599.90485"
       y="192.20253"
       width="611.55353"
       height="311.60104"
       id="rect66252" /><clipPath
       clipPathUnits="userSpaceOnUse"
       id="clipPath56488"><rect
         style="fill:#ffffff;fill-opacity:1;stroke:none;stroke-width:0.789601;stroke-linecap:round;stroke-linejoin:round;stroke-dasharray:none;stroke-opacity:1"
         id="rect56490"
         width="164.23717"
         height="211.72617"
         x="-328.20969"
         y="201.01625" /></clipPath><clipPath
       clipPathUnits="userSpaceOnUse"
       id="clipPath56558"><rect
         style="fill:#ffffff;fill-opacity:1;stroke:none;stroke-width:0.789601;stroke-linecap:round;stroke-linejoin:round;stroke-dasharray:none;stroke-opacity:1"
         id="rect56560"
         width="126.28594"
         height="34.530449"
         x="-177.71349"
         y="254.62932" /></clipPath><filter
       style="color-interpolation-filters:sRGB"
       id="filter66722"
       x="-0.30630205"
       y="-0.2570545"
       width="1.5671756"
       height="1.5731989"><feFlood
         flood-opacity="0.0784314"
         flood-color="rgb(0,0,0)"
         result="flood"
         id="feFlood66712" /><feComposite
         in="flood"
         in2="SourceGraphic"
         operator="in"
         result="composite1"
         id="feComposite66714" /><feGaussianBlur
         in="composite1"
         stdDeviation="5.625"
         result="blur"
         id="feGaussianBlur66716" /><feOffset
         dx="-2.5"
         dy="3.3"
         result="offset"
         id="feOffset66718" /></filter><filter
       style="color-interpolation-filters:sRGB"
       id="filter67406"
       x="-0.0069365352"
       y="-0.00057325802"
       width="1.0071549"
       height="1.0196917"><feFlood
         flood-opacity="0.309804"
         flood-color="rgb(0,0,0)"
         result="flood"
         id="feFlood67396" /><feComposite
         in="flood"
         in2="SourceGraphic"
         operator="in"
         result="composite1"
         id="feComposite67398" /><feGaussianBlur
         in="composite1"
         stdDeviation="0.052807047"
         result="blur"
         id="feGaussianBlur67400" /><feOffset
         dx="-3.9"
         dy="4.1"
         result="offset"
         id="feOffset67402" /><feComposite
         in="SourceGraphic"
         in2="offset"
         operator="over"
         result="composite2"
         id="feComposite67404" /></filter><style
       id="style67455">.cls-1{fill:url(#Degradado_sin_nombre_82);}.cls-2{fill:url(#Degradado_sin_nombre_82-2);}.cls-3{fill:url(#Degradado_sin_nombre_82-3);}.cls-4{fill:url(#Degradado_sin_nombre_82-4);}.cls-5{fill:url(#Degradado_sin_nombre_82-5);}</style><style
       id="style67555">.cls-1{fill:url(#Degradado_sin_nombre_82);}.cls-2{fill:url(#Degradado_sin_nombre_82-2);}.cls-3{fill:url(#Degradado_sin_nombre_82-3);}.cls-4{fill:url(#Degradado_sin_nombre_82-4);}.cls-5{fill:url(#Degradado_sin_nombre_82-5);}</style><filter
       style="color-interpolation-filters:sRGB"
       id="filter69456"
       x="-0.15015108"
       y="-1.3860212"
       width="1.3340014"
       height="4.4097405"><feFlood
         flood-opacity="0.101961"
         flood-color="rgb(0,0,0)"
         result="flood"
         id="feFlood69446" /><feComposite
         in="flood"
         in2="SourceGraphic"
         operator="in"
         result="composite1"
         id="feComposite69448" /><feGaussianBlur
         in="composite1"
         stdDeviation="3.7"
         result="blur"
         id="feGaussianBlur69450" /><feOffset
         dx="2"
         dy="4.1"
         result="offset"
         id="feOffset69452" /><feComposite
         in="SourceGraphic"
         in2="offset"
         operator="over"
         result="composite2"
         id="feComposite69454" /></filter><filter
       style="color-interpolation-filters:sRGB"
       id="filter69468"
       x="-0.074917103"
       y="-0.44315826"
       width="1.1667074"
       height="2.0909279"><feFlood
         flood-opacity="0.101961"
         flood-color="rgb(0,0,0)"
         result="flood"
         id="feFlood69458" /><feComposite
         in="flood"
         in2="SourceGraphic"
         operator="in"
         result="composite1"
         id="feComposite69460" /><feGaussianBlur
         in="composite1"
         stdDeviation="3.7"
         result="blur"
         id="feGaussianBlur69462" /><feOffset
         dx="2"
         dy="4.1"
         result="offset"
         id="feOffset69464" /></filter><filter
       style="color-interpolation-filters:sRGB"
       id="filter71321"
       x="-0.059748059"
       y="-0.043102936"
       width="1.091658"
       height="1.0983983"><feFlood
         flood-opacity="0.101961"
         flood-color="rgb(0,0,0)"
         result="flood"
         id="feFlood71311" /><feComposite
         in="flood"
         in2="SourceGraphic"
         operator="in"
         result="composite1"
         id="feComposite71313" /><feGaussianBlur
         in="composite1"
         stdDeviation="4.8"
         result="blur"
         id="feGaussianBlur71315" /><feOffset
         dx="-10"
         dy="3.27103"
         result="offset"
         id="feOffset71317" /></filter><style
       id="style7450">
      @import url('https://fonts.googleapis.com/css2?family=Nunito:wght@700&amp;display=swap');
    </style><filter
       style="color-interpolation-filters:sRGB"
       id="filter66722-8"
       x="-0.30630205"
       y="-0.2570545"
       width="1.5671756"
       height="1.5731989"><feFlood
         flood-opacity="0.0784314"
         flood-color="rgb(0,0,0)"
         result="flood"
         id="feFlood66712-4" /><feComposite
         in="flood"
         in2="SourceGraphic"
         operator="in"
         result="composite1"
         id="feComposite66714-1" /><feGaussianBlur
         in="composite1"
         stdDeviation="5.625"
         result="blur"
         id="feGaussianBlur66716-3" /><feOffset
         dx="-2.5"
         dy="3.3"
         result="offset"
         id="feOffset66718-7" /><feComposite
         in="SourceGraphic"
         in2="offset"
         operator="over"
         result="composite2"
         id="feComposite66720-5" /></filter><rect
       x="-599.90485"
       y="192.20253"
       width="611.55353"
       height="311.60104"
       id="rect66252-2" /><filter
       style="color-interpolation-filters:sRGB"
       id="filter67406-9"
       x="-0.0069365352"
       y="-0.00057325802"
       width="1.0071549"
       height="1.0196917"><feFlood
         flood-opacity="0.309804"
         flood-color="rgb(0,0,0)"
         result="flood"
         id="feFlood67396-3" /><feComposite
         in="flood"
         in2="SourceGraphic"
         operator="in"
         result="composite1"
         id="feComposite67398-2" /><feGaussianBlur
         in="composite1"
         stdDeviation="0.052807047"
         result="blur"
         id="feGaussianBlur67400-2" /><feOffset
         dx="-3.9"
         dy="4.1"
         result="offset"
         id="feOffset67402-3" /><feComposite
         in="SourceGraphic"
         in2="offset"
         operator="over"
         result="composite2"
         id="feComposite67404-2" /></filter><filter
       style="color-interpolation-filters:sRGB"
       id="filter69468-5"
       x="-0.074917103"
       y="-0.44315826"
       width="1.1667074"
       height="2.0909279"><feFlood
         flood-opacity="0.101961"
         flood-color="rgb(0,0,0)"
         result="flood"
         id="feFlood69458-5" /><feComposite
         in="flood"
         in2="SourceGraphic"
         operator="in"
         result="composite1"
         id="feComposite69460-3" /><feGaussianBlur
         in="composite1"
         stdDeviation="3.7"
         result="blur"
         id="feGaussianBlur69462-1" /><feOffset
         dx="2"
         dy="4.1"
         result="offset"
         id="feOffset69464-1" /></filter><filter
       style="color-interpolation-filters:sRGB"
       id="filter69456-0"
       x="-0.15015108"
       y="-1.3860212"
       width="1.3340014"
       height="4.4097405"><feFlood
         flood-opacity="0.101961"
         flood-color="rgb(0,0,0)"
         result="flood"
         id="feFlood69446-8" /><feComposite
         in="flood"
         in2="SourceGraphic"
         operator="in"
         result="composite1"
         id="feComposite69448-1" /><feGaussianBlur
         in="composite1"
         stdDeviation="3.7"
         result="blur"
         id="feGaussianBlur69450-6" /><feOffset
         dx="2"
         dy="4.1"
         result="offset"
         id="feOffset69452-5" /><feComposite
         in="SourceGraphic"
         in2="offset"
         operator="over"
         result="composite2"
         id="feComposite69454-0" /></filter><filter
       style="color-interpolation-filters:sRGB"
       id="filter69468-9"
       x="-0.077067785"
       y="-0.45588022"
       width="1.1710088"
       height="2.1163718"><feFlood
         flood-opacity="0.101961"
         flood-color="rgb(0,0,0)"
         result="flood"
         id="feFlood69458-6" /><feComposite
         in="flood"
         in2="SourceGraphic"
         operator="in"
         result="composite1"
         id="feComposite69460-7" /><feGaussianBlur
         in="composite1"
         stdDeviation="3.7"
         result="blur"
         id="feGaussianBlur69462-4" /><feOffset
         dx="2"
         dy="4.1"
         result="offset"
         id="feOffset69464-9" /></filter><filter
       style="color-interpolation-filters:sRGB"
       id="filter69456-0-1"
       x="-0.15015108"
       y="-1.3860212"
       width="1.3340014"
       height="4.4097405"><feFlood
         flood-opacity="0.101961"
         flood-color="rgb(0,0,0)"
         result="flood"
         id="feFlood69446-8-4" /><feComposite
         in="flood"
         in2="SourceGraphic"
         operator="in"
         result="composite1"
         id="feComposite69448-1-6" /><feGaussianBlur
         in="composite1"
         stdDeviation="3.7"
         result="blur"
         id="feGaussianBlur69450-6-6" /><feOffset
         dx="2"
         dy="4.1"
         result="offset"
         id="feOffset69452-5-0" /><feComposite
         in="SourceGraphic"
         in2="offset"
         operator="over"
         result="composite2"
         id="feComposite69454-0-4" /></filter><filter
       style="color-interpolation-filters:sRGB"
       id="filter69456-0-1-9"
       x="-0.21409439"
       y="-1.3239489"
       width="1.4762378"
       height="4.2570198"><feFlood
         flood-opacity="0.101961"
         flood-color="rgb(0,0,0)"
         result="flood"
         id="feFlood69446-8-4-9" /><feComposite
         in="flood"
         in2="SourceGraphic"
         operator="in"
         result="composite1"
         id="feComposite69448-1-6-1" /><feGaussianBlur
         in="composite1"
         stdDeviation="3.7"
         result="blur"
         id="feGaussianBlur69450-6-6-1" /><feOffset
         dx="2"
         dy="4.1"
         result="offset"
         id="feOffset69452-5-0-3" /><feComposite
         in="SourceGraphic"
         in2="offset"
         operator="over"
         result="composite2"
         id="feComposite69454-0-4-5" /></filter><filter
       style="color-interpolation-filters:sRGB"
       id="filter69468-9-8"
       x="-0.077067785"
       y="-0.45588022"
       width="1.1710088"
       height="2.1163718"><feFlood
         flood-opacity="0.101961"
         flood-color="rgb(0,0,0)"
         result="flood"
         id="feFlood69458-6-3" /><feComposite
         in="flood"
         in2="SourceGraphic"
         operator="in"
         result="composite1"
         id="feComposite69460-7-1" /><feGaussianBlur
         in="composite1"
         stdDeviation="3.7"
         result="blur"
         id="feGaussianBlur69462-4-0" /><feOffset
         dx="2"
         dy="4.1"
         result="offset"
         id="feOffset69464-9-6" /></filter><filter
       style="color-interpolation-filters:sRGB"
       id="filter69456-0-1-2"
       x="-0.21409439"
       y="-1.3239489"
       width="1.4762378"
       height="4.2570198"><feFlood
         flood-opacity="0.101961"
         flood-color="rgb(0,0,0)"
         result="flood"
         id="feFlood69446-8-4-2" /><feComposite
         in="flood"
         in2="SourceGraphic"
         operator="in"
         result="composite1"
         id="feComposite69448-1-6-3" /><feGaussianBlur
         in="composite1"
         stdDeviation="3.7"
         result="blur"
         id="feGaussianBlur69450-6-6-9" /><feOffset
         dx="2"
         dy="4.1"
         result="offset"
         id="feOffset69452-5-0-4" /><feComposite
         in="SourceGraphic"
         in2="offset"
         operator="over"
         result="composite2"
         id="feComposite69454-0-4-8" /></filter><filter
       style="color-interpolation-filters:sRGB"
       id="filter69468-9-7"
       x="-0.077067785"
       y="-0.45588022"
       width="1.1710088"
       height="2.1163718"><feFlood
         flood-opacity="0.101961"
         flood-color="rgb(0,0,0)"
         result="flood"
         id="feFlood69458-6-4" /><feComposite
         in="flood"
         in2="SourceGraphic"
         operator="in"
         result="composite1"
         id="feComposite69460-7-3" /><feGaussianBlur
         in="composite1"
         stdDeviation="3.7"
         result="blur"
         id="feGaussianBlur69462-4-8" /><feOffset
         dx="2"
         dy="4.1"
         result="offset"
         id="feOffset69464-9-3" /></filter></defs><g
     id="layer3"
     transform="matrix(1.0542992,0,0,0.82217229,-119.61421,37.415573)"
     style="display:none"><g
       id="g70757"
       transform="matrix(1.2,0,0,1.2,145.35999,314.00374)"><path
         id="ellipse949"
         style="fill:#cfdff9;stroke-width:3.98356;stroke-linecap:round;stroke-linejoin:round"
         d="M 446.65163,22.250491 A 236.6201,150.27653 0 0 1 210.03155,172.52703 236.6201,150.27653 0 0 1 -26.588527,22.250491 236.6201,150.27653 0 0 1 210.03155,-128.02604 236.6201,150.27653 0 0 1 446.65163,22.250491 Z" /><path
         id="path393"
         style="fill:#e5eefc;fill-opacity:0.996078;stroke-width:3.98356;stroke-linecap:round;stroke-linejoin:round"
         d="M 448.22311,2.0992389 A 236.6201,150.27653 0 0 1 211.60299,152.37577 236.6201,150.27653 0 0 1 -25.017087,2.0992389 236.6201,150.27653 0 0 1 211.60299,-148.17729 236.6201,150.27653 0 0 1 448.22311,2.0992389 Z" /></g></g><g transform="translate(52.058844,-26.711253)">
  <use href="#g69717" style="filter:url(#filter71321)" />
  <g
     id="g69717"
    
     style=""><path
       id="rect48205"
       style="display:inline;fill:#7a818d;stroke:#946b0b;stroke-width:0.1;stroke-linecap:round;stroke-linejoin:round"
       d="m 313.40132,166.7568 c -3.70589,0.0824 -7.44631,1.18683 -10.35492,3.29437 L 81.91054,330.28325 c -5.817218,4.21508 -6.038988,10.79837 -0.497638,14.76085 l 110.680068,79.14453 c 5.54135,3.96249 14.68591,3.75929 20.50313,-0.45579 L 433.73144,263.50128 c 5.81722,-4.21508 6.03953,-10.79837 0.49817,-14.76086 L 323.54954,169.59538 c -2.77068,-1.98124 -6.44233,-2.921 -10.14822,-2.83858 z" /><path
       id="rect48205-2"
       style="display:inline;fill:#7a818d;stroke:#946b0b;stroke-width:0.1;stroke-linecap:round;stroke-linejoin:round"
       d="m 313.40132,174.90307 c -3.70588,0.0824 -7.44631,1.18735 -10.35493,3.29489 l -216.92577,157.1811 -0.18293,-2.5988 -8.598448,4.95473 0.09405,7.85895 c -0.03513,0.46831 -0.03526,0.93542 0.01705,1.39991 l 5.08e-4,0.0516 0.0076,-0.002 c 0.270938,2.26826 1.578897,4.44871 3.953762,6.14692 l 110.680578,79.14504 c 5.54136,3.96249 14.68541,3.75928 20.50263,-0.45578 L 433.73124,271.64761 c 5.81722,-4.21507 6.03951,-10.79838 0.49817,-14.76086 L 323.54882,177.74171 c -2.77068,-1.98124 -6.44181,-2.921 -10.1477,-2.83859 z" /><path
       id="rect48961"
       style="display:inline;fill:#2b2e32;stroke-width:0.0966322;stroke-linecap:round;stroke-linejoin:round"
       d="m 313.823,170.67853 c -3.62692,0.0806 -7.28764,1.16145 -10.13426,3.22408 L 87.265254,330.71991 c -5.693263,4.12526 -5.910571,10.56862 -0.487307,14.44666 L 191.8873,420.32788 c 5.42326,3.87804 14.37269,3.67877 20.06596,-0.44648 L 428.37673,263.0641 c 5.69327,-4.12526 5.91058,-10.56811 0.48732,-14.44615 L 323.7547,173.45664 c -2.71164,-1.93902 -6.30478,-2.85877 -9.9317,-2.77811 z" /><path
       style="fill:#4d525a;fill-opacity:1;stroke:none;stroke-width:0.0148309;stroke-linecap:round;stroke-linejoin:round;stroke-dasharray:none"
       id="rect50623"
       width="34.98288"
       height="3.3445687"
       x="401.35574"
       y="-38.610443"
       transform="matrix(0.81315479,0.5820475,-0.54121342,0.84088527,0,0)"
       ry="0.26652387"
       d="m 428.0806,-38.610443 h 3.40044 c 2.53557,0 4.85758,0.05835 4.85758,0.266524 v 2.811521 c 0,0.208171 -12.11232,0.266524 -26.72485,0.266524 -4.41374,0 -8.25802,-0.05835 -8.25803,-0.266524 v -2.811521 c 10e-6,-0.208171 12.11233,-0.266524 26.72486,-0.266524 z" /><path
       style="fill:#7a818d;fill-opacity:1;stroke:none;stroke-width:0.1;stroke-linecap:round;stroke-linejoin:round"
       d="m 438.35516,264.35523 -0.0911,-10.15715 -3.8686,2.35718 -0.49818,14.76085 z"
       id="path49788" /></g>
</g><g
     id="g12656"
     transform="translate(-187.20129,-297.51623)"><g
       id="g7505-6"
       style="display:inline"
       transform="translate(187.7541,377.28099)"><path
         id="rect48961-5-5-52"
         style="display:inline;fill:#ffffff;fill-opacity:1;stroke:#7a818d;stroke-width:0.397;stroke-linecap:round;stroke-linejoin:round;stroke-dasharray:none;stroke-opacity:1"
         d="m 361.32784,0.199985 c -3.8456,-0.04725 -7.78928,1.03617 -10.81381,3.227705 l -216.42348,156.8173 c -5.69325,4.12524 -5.91056,10.56811 -0.48731,14.44615 l 105.10935,75.1613 c 5.42326,3.87804 14.3727,3.67877 20.06596,-0.44648 L 475.20203,92.588661 c 5.69325,-4.12525 5.91056,-10.568112 0.48731,-14.44615 l -22.89938,-16.375227 -1.98438,2.699064 c -3.83425,5.215273 -11.23138,6.244864 -16.58504,2.308902 L 387.48128,32.412998 c -5.35368,-3.935974 -6.5767,-11.303078 -2.74247,-16.518367 l 1.34359,-1.827793 -15.50241,-11.08563 c -2.54216,-1.817833 -5.85897,-2.739537 -9.25215,-2.781223 z" /><g transform="matrix(0.80847563,0.58852965,-0.78747593,0.6163454,41.889595,-18.283912)">
  <use href="#rect68249-1" style="filter:url(#filter69468-5)" />
  <rect
         style="display:inline;fill:#0d9488;fill-opacity:1;stroke:none;stroke-width:1.24681;stroke-linecap:round;stroke-linejoin:round;stroke-dasharray:none;stroke-opacity:1;"
         id="rect68249-1"
         width="118.53101"
         height="20.037989"
         x="222.15575"
         y="65.999039"
         ry="2.8813539"
        
         rx="2.8813539" />
</g><text
         xml:space="preserve"
         style="font-style:normal;font-variant:normal;font-weight:normal;font-stretch:normal;font-size:7.9375px;font-family:'Heiti TC',sans-serif;-inkscape-font-specification:'Heiti TC';text-align:center;text-anchor:middle;display:inline;fill:#20cb76;fill-opacity:1;stroke:#ffffff;stroke-width:0.0625;stroke-linecap:round;stroke-linejoin:round;stroke-dasharray:none;stroke-opacity:1;"
         x="281.49271"
         y="76.325272"
         id="text68259-3"
         transform="matrix(0.79645421,0.60469883,-0.83153748,0.62422955,51.273009,-18.400299)"><tspan
           id="tspan68257-4"
           style="font-size:7.9375px;fill:#ffffff;fill-opacity:1;stroke:#ffffff;stroke-width:0.0625;stroke-dasharray:none;stroke-opacity:1"
           x="281.49271"
           y="76.325272">Volver a la web</tspan></text><g
         id="g7483-2"
         transform="matrix(0.21198883,0.15831954,-0.15831954,0.21198883,375.47765,31.895359)"
         style="display:inline"><g
           transform="matrix(1.6,0,0,1.6,5,3)"
           id="g7466-6"><g
             transform="translate(-45.053681,-99.309918)"
             id="g7464-8"><path
               style="fill:#0d9488"
               d="m 45.148833,121.47429 c 5.64e-4,-2.83541 0.07781,-5.22613 0.180269,-5.57893 0.360693,-1.24204 1.135154,-2.00215 5.113081,-5.01835 5.893415,-4.4686 10.41632,-7.55818 11.080034,-7.9014 0.747892,-0.38675 2.187605,-0.40916 3.151078,-0.14847 0.673851,0.18233 1.63612,0.82421 5.989411,3.99522 0.79077,0.57602 3.10609,2.25817 5.14516,3.73811 3.88641,2.82074 4.95286,3.81488 5.286,4.92757 0.2121,0.70842 0.35122,2.79804 0.19658,2.95268 -0.0499,0.05 -1.67388,0.45369 -3.60872,0.8972 -1.93485,0.44351 -4.32245,1.00131 -5.30578,1.23955 -2.43943,0.59102 -2.35726,0.60697 -2.35726,-0.45754 0,-1.37332 -0.68037,-2.37351 -1.889349,-2.77747 -0.596475,-0.1993 -2.116878,0.0154 -6.577321,0.9289 -1.11566,0.22848 -2.345972,0.46593 -2.734028,0.52766 -2.767535,0.44025 -4.321528,2.11474 -4.321528,4.65661 v 0.67531 0.16985 l -0.160051,0.0323 -1.647935,0.3328 c -0.994392,0.20082 -2.522361,0.54093 -3.395486,0.7558 -0.873125,0.21488 -2.162969,0.53097 -2.86632,0.70242 l -1.278819,0.31174 9.88e-4,-4.96158 z"
               id="path7454-0" /><path
               style="fill:#0f766e"
               d="m 45.148831,130.87964 -9.84e-4,-3.80114 1.278819,-0.30707 c 3.51441,-0.84388 7.41812,-1.641 7.721677,-1.70385 0.122739,-0.0254 0.323083,-0.10914 0.324739,0.0607 0.0043,0.44413 -0.02832,1.50183 0.02338,6.64212 l 0.07237,7.19576 c -1.83558,0.12649 -5.417276,0.0966 -7.662009,0.0831 -0.672714,-0.0531 -1.125354,-0.67035 -1.395617,-1.16882 -0.736383,-2.13633 -0.362845,-4.82516 -0.362375,-7.0008 z m 25.046245,0.12765 v -8.02532 l 3.1309,-0.73844 c 1.72199,-0.40614 4.0834,-0.9685 5.24757,-1.24969 1.16416,-0.28119 2.45029,-0.43857 2.57156,-0.43888 0.17298,-3.5e-4 0.22277,1.4983 0.21973,7.34501 -0.004,6.83135 -0.26823,7.54516 -0.56303,8.19191 -0.47914,1.05108 -1.19686,1.81314 -2.20714,2.34352 -0.8841,0.46413 -0.98178,0.47538 -4.65133,0.53565 l -3.74826,0.0616 z"
               id="path7456-1" /><g
               style="fill:#f59e0b"
               id="g7462-6"><path
                 d="m 78.960337,105.05075 c -0.15088,0.0251 -0.22423,0.43692 -0.28799,0.70383 -0.0782,0.32717 -0.3262,0.5858 -0.76125,0.79375 -0.88127,0.42125 -0.90271,0.66893 -0.0936,1.08169 0.49504,0.25255 0.73538,0.51499 0.85564,0.93431 0.23934,0.83451 0.68871,0.84488 1.07485,0.0248 0.21085,-0.44779 0.53694,-0.77593 0.977,-0.98314 0.82806,-0.3899 0.84192,-0.75017 0.0391,-1.01514 -0.44282,-0.14614 -0.72094,-0.40013 -0.96762,-0.88365 -0.40874,-0.80121 -0.46346,-0.71856 -0.83607,-0.65646 z m -4.83946,0.28365 c -0.15154,-0.17337 -0.36557,-0.59613 -0.47562,-0.93947 -0.19531,-0.60935 -0.95375,-1.10191 -1.47598,-1.22782 -0.27887,-0.0672 -0.86406,-0.60873 -0.74754,-0.91237 0.0544,-0.1418 0.49041,-0.42322 0.96887,-0.62536 0.77247,-0.32636 0.91951,-0.47963 1.31238,-1.36798 0.37183,-0.840769 0.50644,-0.991368 0.84337,-0.943554 0.28837,0.04092 0.52073,0.316532 0.82771,0.981774 0.38028,0.82407 0.52446,0.96125 1.32292,1.25869 0.51766,0.19284 0.92127,0.4596 0.95568,0.63165 0.0827,0.4136 -0.41841,0.91662 -1.03624,1.04019 -0.64095,0.12819 -1.05951,0.59316 -1.40973,1.56604 -0.29937,0.8316 -0.66914,1.01489 -1.08582,0.53821 z"
                 id="path7458-5" /><path
                 d="m 65.766821,139.59097 c -0.436561,-0.0328 -2.103436,-0.17778 -3.704165,-0.32227 -1.60073,-0.14449 -3.448447,-0.31054 -4.106037,-0.369 l -1.195622,-0.10629 -0.0405,-9.15289 -0.01638,-3.70262 c -0.0261,-5.25515 -0.839499,-4.40523 4.407607,-5.52553 2.573249,-0.56623 4.748327,-0.83765 5.749901,-0.68608 1.110927,0.21914 0.925883,1.73868 0.948195,2.35691 0.0504,1.44744 0.06989,4.00615 0.07106,8.2363 l 0.0026,9.39271 -0.661458,-0.0308 c -0.363802,-0.017 -1.018646,-0.0576 -1.455209,-0.0904 z m 0.399112,-8.18603 c 0.483388,-0.59148 0.561617,-1.18959 0.242986,-1.85776 -0.729033,-1.5288 -3.111541,-0.98307 -3.111541,0.71271 0,0.64295 0.403735,1.29431 0.944915,1.52446 0.575471,0.24474 1.574609,0.0477 1.92364,-0.37941 z"
                 id="path7460-0" /></g></g></g><text
           x="75"
           y="47"
           font-family="Nunito, Arial, sans-serif"
           font-size="34px"
           font-weight="700"
           fill="#0d9488"
           id="text7468-4">Hospedy</text></g></g><text
       xml:space="preserve"
       style="font-style:normal;font-variant:normal;font-weight:normal;font-stretch:normal;font-size:7.9375px;font-family:'Heiti TC',sans-serif;-inkscape-font-specification:'Heiti TC';text-align:center;text-anchor:middle;display:inline;fill:#000000;fill-opacity:1;stroke:#ffffff;stroke-width:0.063;stroke-linecap:round;stroke-linejoin:round;stroke-dasharray:none;stroke-opacity:1;"
       x="281.49271"
       y="76.325272"
       id="text68259-3-0"
       transform="matrix(0.7964542,0.60469883,-0.83153747,0.62422955,273.32149,326.35409)"><tspan
         id="tspan68257-4-4"
         style="font-size:7.9375px;fill:#000000;fill-opacity:1;stroke:#ffffff;stroke-width:0.063;stroke-dasharray:none;stroke-opacity:1"
         x="281.49271"
         y="76.325272">01/06/2026</tspan></text><g transform="matrix(0.80847563,0.58852965,-0.78747593,0.6163454,268.90425,329.7212)">
  <use href="#rect68249-4" style="filter:url(#filter69468-9)" />
  <rect
       style="display:inline;fill:none;fill-opacity:1;stroke:#0d9488;stroke-width:0.509845;stroke-linecap:round;stroke-linejoin:round;stroke-dasharray:none;stroke-opacity:1;"
       id="rect68249-4"
       width="118.53101"
       height="20.037989"
       x="222.15575"
       y="65.999039"
       ry="2.8813539"
      
       rx="2.8813539" />
</g><text
       xml:space="preserve"
       style="font-style:normal;font-variant:normal;font-weight:normal;font-stretch:normal;font-size:7.9375px;font-family:'Heiti TC',sans-serif;-inkscape-font-specification:'Heiti TC';text-align:center;text-anchor:middle;display:inline;fill:#000000;fill-opacity:1;stroke:#ffffff;stroke-width:0.063;stroke-linecap:round;stroke-linejoin:round;stroke-dasharray:none;stroke-opacity:1;"
       x="281.49271"
       y="76.325272"
       id="text68259-3-0-7"
       transform="matrix(0.7964542,0.60469883,-0.83153747,0.62422955,309.38834,299.87616)"><tspan
         id="tspan68257-4-4-6"
         style="font-size:7.9375px;fill:#000000;fill-opacity:1;stroke:#ffffff;stroke-width:0.063;stroke-dasharray:none;stroke-opacity:1"
         x="281.49271"
         y="76.325272">28/05/2026</tspan></text><g transform="matrix(0.80847563,0.58852965,-0.78747593,0.6163454,304.9711,303.24327)">
  <use href="#rect68249-4-2" style="filter:url(#filter69468-9-8)" />
  <rect
       style="display:inline;fill:none;fill-opacity:1;stroke:#0d9488;stroke-width:0.509845;stroke-linecap:round;stroke-linejoin:round;stroke-dasharray:none;stroke-opacity:1;"
       id="rect68249-4-2"
       width="118.53101"
       height="20.037989"
       x="222.15575"
       y="65.999039"
       ry="2.8813539"
      
       rx="2.8813539" />
</g><text
       xml:space="preserve"
       style="font-style:normal;font-variant:normal;font-weight:normal;font-stretch:normal;font-size:7.9375px;font-family:'Heiti TC',sans-serif;-inkscape-font-specification:'Heiti TC';text-align:center;text-anchor:middle;display:inline;fill:#000000;fill-opacity:1;stroke:#ffffff;stroke-width:0.063;stroke-linecap:round;stroke-linejoin:round;stroke-dasharray:none;stroke-opacity:1;"
       x="281.49271"
       y="76.325272"
       id="text68259-3-0-77"
       transform="matrix(0.7964542,0.60469883,-0.83153747,0.62422955,345.90405,272.58014)"><tspan
         id="tspan68257-4-4-3"
         style="font-size:7.9375px;fill:#000000;fill-opacity:1;stroke:#ffffff;stroke-width:0.063;stroke-dasharray:none;stroke-opacity:1"
         x="281.49271"
         y="76.325272">2 Huéspedes</tspan></text><g transform="matrix(0.80847563,0.58852965,-0.78747593,0.6163454,341.48681,275.94725)">
  <use href="#rect68249-4-3" style="filter:url(#filter69468-9-7)" />
  <rect
       style="display:inline;fill:none;fill-opacity:1;stroke:#0d9488;stroke-width:0.509845;stroke-linecap:round;stroke-linejoin:round;stroke-dasharray:none;stroke-opacity:1;"
       id="rect68249-4-3"
       width="118.53101"
       height="20.037989"
       x="222.15575"
       y="65.999039"
       ry="2.8813539"
      
       rx="2.8813539" />
</g><g
       id="g12516"><ellipse
         style="fill:#9f9f9f;fill-opacity:1;stroke:none;stroke-width:1.22119;stroke-linecap:round;stroke-linejoin:round;stroke-dasharray:none;stroke-dashoffset:3.77953;stroke-opacity:1"
         id="path11707"
         cx="366.11511"
         cy="674.9574"
         rx="8.9329939"
         ry="5.5423069"
         transform="matrix(0.91780654,-0.39702793,0.37407993,0.92739647,0,0)" /><text
         xml:space="preserve"
         style="font-weight:bold;font-size:9.87777px;font-family:Luminari,sans-serif;-inkscape-font-specification:'Luminari Bold';text-align:center;text-anchor:middle;fill:#ffffff;fill-opacity:1;stroke:#0d9488;stroke-width:0.0629999;stroke-linecap:round;stroke-linejoin:round;stroke-dasharray:none;stroke-dashoffset:3.77953;stroke-opacity:1"
         x="748.30017"
         y="-126.85415"
         id="text12198"
         transform="rotate(49.021431)"><tspan
           sodipodi:role="line"
           id="tspan12196"
           style="fill:#ffffff;fill-opacity:1;stroke-width:0.063"
           x="748.30017"
           y="-126.85415">4</tspan></text></g><g
       id="g12516-5"
       transform="translate(-23.217532,-17.752188)"><ellipse
         style="fill:#9f9f9f;fill-opacity:1;stroke:none;stroke-width:1.22119;stroke-linecap:round;stroke-linejoin:round;stroke-dasharray:none;stroke-dashoffset:3.77953;stroke-opacity:1"
         id="path11707-2"
         cx="366.11511"
         cy="674.9574"
         rx="8.9329939"
         ry="5.5423069"
         transform="matrix(0.91780654,-0.39702793,0.37407993,0.92739647,0,0)" /><text
         xml:space="preserve"
         style="font-weight:bold;font-size:9.87777px;font-family:Luminari,sans-serif;-inkscape-font-specification:'Luminari Bold';text-align:center;text-anchor:middle;fill:#ffffff;fill-opacity:1;stroke:#0d9488;stroke-width:0.0629999;stroke-linecap:round;stroke-linejoin:round;stroke-dasharray:none;stroke-dashoffset:3.77953;stroke-opacity:1"
         x="748.30017"
         y="-126.85415"
         id="text12198-4"
         transform="rotate(49.021431)"><tspan
           sodipodi:role="line"
           id="tspan12196-5"
           style="fill:#ffffff;fill-opacity:1;stroke-width:0.063"
           x="748.30017"
           y="-126.85415">3</tspan></text></g></g><path
     id="rect48961-5-5-5"
     style="display:inline;fill:#202020;fill-opacity:0.368627;stroke:#7a818d;stroke-width:0.397552;stroke-linecap:round;stroke-linejoin:round;stroke-dasharray:none;stroke-opacity:1"
     d="m 361.90235,80.208937 c -3.85631,-0.0472 -7.81098,1.03617 -10.84393,3.2277 L 134.03199,240.2536 c -5.7091,4.12523 -5.92703,10.56808 -0.48866,14.44611 l 105.40217,75.16114 c 5.43837,3.87803 14.41274,3.67876 20.12187,-0.44648 L 476.09379,172.59741 c 5.70912,-4.12524 5.92703,-10.56808 0.48867,-14.44611 l -22.96317,-16.3752 -1.98991,2.69907 c -3.84494,5.21526 -11.26267,6.24484 -16.63125,2.30889 l -46.86947,-34.36217 c -5.3686,-3.93597 -6.59503,-11.30306 -2.75011,-16.518343 l 1.34733,-1.82778 -15.5456,-11.08561 c -2.54924,-1.81783 -5.87529,-2.73953 -9.27793,-2.78122 z" /><path
     id="rect48961-5-5"
     style="display:inline;fill:#ffffff;fill-opacity:1;stroke:#7a818d;stroke-width:0.397;stroke-linecap:round;stroke-linejoin:round;stroke-dasharray:none;stroke-opacity:1"
     d="m 361.32784,0.199985 c -3.8456,-0.04725 -7.78928,1.03617 -10.81381,3.227705 l -216.42348,156.8173 c -5.69325,4.12524 -5.91056,10.56811 -0.48731,14.44615 l 105.10935,75.1613 c 5.42326,3.87804 14.3727,3.67877 20.06596,-0.44648 L 475.20203,92.588661 c 5.69325,-4.12525 5.91056,-10.568112 0.48731,-14.44615 l -22.89938,-16.375227 -1.98438,2.699064 c -3.83425,5.215273 -11.23138,6.244864 -16.58504,2.308902 L 387.48128,32.412998 c -5.35368,-3.935974 -6.5767,-11.303078 -2.74247,-16.518367 l 1.34359,-1.827793 -15.50241,-11.08563 c -2.54216,-1.817833 -5.85897,-2.739537 -9.25215,-2.781223 z" /><g transform="matrix(0.81342947,0.58166357,-0.85392498,0.61874196,324.3679,-60.211794)">
  <use href="#path56641" style="filter:url(#filter66722)" />
  <path
     id="path56641"
     style="fill:#f59e0b;fill-opacity:1;stroke:#0d9488;stroke-width:1.71134;stroke-linecap:round;stroke-linejoin:round;stroke-opacity:1;"
     d="m 174.27068,136.75511 a 25.936569,29.396201 41.608467 0 1 -30.07136,28.64569 25.936569,29.396201 41.608467 0 1 -24.69708,-27.18229 25.936569,29.396201 41.608467 0 1 30.07134,-28.64569 25.936569,29.396201 41.608467 0 1 24.6971,27.18229 z"
     />
</g><path
     style="fill:none;fill-opacity:0.696471;stroke:#0d9488;stroke-width:5.60222;stroke-linecap:round;stroke-linejoin:round;stroke-dasharray:none;stroke-opacity:1"
     d="m 328.8838,85.795041 c 7.29908,8.52434 -8.7074,22.295589 -11.13424,32.476819 -14.64513,1.86672 86.40004,-30.609699 113.28442,-14.97185"
     id="path58409" /><text
     xml:space="preserve"
     transform="matrix(0.17925889,0.12114226,-0.19514796,0.12685494,395.40837,139.79023)"
     id="text66250"
     style="font-style:normal;font-variant:normal;font-weight:normal;font-stretch:normal;font-size:96px;font-family:'Avenir Next',sans-serif;-inkscape-font-specification:'Avenir Next';text-align:center;white-space:pre;shape-inside:url(#rect66252);display:inline;fill:#000000;fill-opacity:1;stroke:none;stroke-width:5.66954;stroke-linecap:round;stroke-linejoin:round;stroke-dasharray:none;stroke-opacity:1;"
     x="290.25565"
     y="0"><tspan
       x="-490.11148"
       y="286.76313"
       id="tspan12838"><tspan
         style="font-family:'Heiti TC',sans-serif;-inkscape-font-specification:'Heiti TC'"
         id="tspan12836">Reserva 
</tspan></tspan><tspan
       x="-589.9035"
       y="419.04492"
       id="tspan12842"><tspan
         style="font-family:'Heiti TC',sans-serif;-inkscape-font-specification:'Heiti TC'"
         id="tspan12840">completada</tspan></tspan></text><g transform="matrix(0.80847563,0.58852965,-0.78747593,0.6163454,41.889595,-18.283912)">
  <use href="#rect68249" style="filter:url(#filter69468)" />
  <rect
     style="display:inline;fill:#0d9488;fill-opacity:1;stroke:none;stroke-width:1.24681;stroke-linecap:round;stroke-linejoin:round;stroke-dasharray:none;stroke-opacity:1;"
     id="rect68249"
     width="118.53101"
     height="20.037989"
     x="222.15575"
     y="65.999039"
     ry="2.8813539"
     />
</g><text
     xml:space="preserve"
     style="font-style:normal;font-variant:normal;font-weight:normal;font-stretch:normal;font-size:7.9375px;font-family:'Heiti TC',sans-serif;-inkscape-font-specification:'Heiti TC';text-align:center;text-anchor:middle;display:inline;fill:#20cb76;fill-opacity:1;stroke:#ffffff;stroke-width:0.0625;stroke-linecap:round;stroke-linejoin:round;stroke-dasharray:none;stroke-opacity:1;"
     x="281.49271"
     y="76.325272"
     id="text68259"
     transform="matrix(0.79645421,0.60469883,-0.83153748,0.62422955,51.273009,-18.400299)"><tspan
       id="tspan68257"
       style="font-size:7.9375px;fill:#ffffff;fill-opacity:1;stroke:#ffffff;stroke-width:0.0625;stroke-dasharray:none;stroke-opacity:1"
       x="281.49271"
       y="76.325272">Volver a la web</tspan></text><g
     id="g7483"
     transform="matrix(0.20892064,0.16234687,-0.16234687,0.20892064,375.98067,31.585788)"
     style="display:inline"
     inkscape:label="g7483"><g
       transform="matrix(1.6,0,0,1.6,5,3)"
       id="g7466"><g
         transform="translate(-45.053681,-99.309918)"
         id="g7464"><path
           style="fill:#0d9488"
           d="m 45.148833,121.47429 c 5.64e-4,-2.83541 0.07781,-5.22613 0.180269,-5.57893 0.360693,-1.24204 1.135154,-2.00215 5.113081,-5.01835 5.893415,-4.4686 10.41632,-7.55818 11.080034,-7.9014 0.747892,-0.38675 2.187605,-0.40916 3.151078,-0.14847 0.673851,0.18233 1.63612,0.82421 5.989411,3.99522 0.79077,0.57602 3.10609,2.25817 5.14516,3.73811 3.88641,2.82074 4.95286,3.81488 5.286,4.92757 0.2121,0.70842 0.35122,2.79804 0.19658,2.95268 -0.0499,0.05 -1.67388,0.45369 -3.60872,0.8972 -1.93485,0.44351 -4.32245,1.00131 -5.30578,1.23955 -2.43943,0.59102 -2.35726,0.60697 -2.35726,-0.45754 0,-1.37332 -0.68037,-2.37351 -1.889349,-2.77747 -0.596475,-0.1993 -2.116878,0.0154 -6.577321,0.9289 -1.11566,0.22848 -2.345972,0.46593 -2.734028,0.52766 -2.767535,0.44025 -4.321528,2.11474 -4.321528,4.65661 v 0.67531 0.16985 l -0.160051,0.0323 -1.647935,0.3328 c -0.994392,0.20082 -2.522361,0.54093 -3.395486,0.7558 -0.873125,0.21488 -2.162969,0.53097 -2.86632,0.70242 l -1.278819,0.31174 9.88e-4,-4.96158 z"
           id="path7454" /><path
           style="fill:#0f766e"
           d="m 45.148831,130.87964 -9.84e-4,-3.80114 1.278819,-0.30707 c 3.51441,-0.84388 7.41812,-1.641 7.721677,-1.70385 0.122739,-0.0254 0.323083,-0.10914 0.324739,0.0607 0.0043,0.44413 -0.02832,1.50183 0.02338,6.64212 l 0.07237,7.19576 c -1.83558,0.12649 -5.417276,0.0966 -7.662009,0.0831 -0.672714,-0.0531 -1.125354,-0.67035 -1.395617,-1.16882 -0.736383,-2.13633 -0.362845,-4.82516 -0.362375,-7.0008 z m 25.046245,0.12765 v -8.02532 l 3.1309,-0.73844 c 1.72199,-0.40614 4.0834,-0.9685 5.24757,-1.24969 1.16416,-0.28119 2.45029,-0.43857 2.57156,-0.43888 0.17298,-3.5e-4 0.22277,1.4983 0.21973,7.34501 -0.004,6.83135 -0.26823,7.54516 -0.56303,8.19191 -0.47914,1.05108 -1.19686,1.81314 -2.20714,2.34352 -0.8841,0.46413 -0.98178,0.47538 -4.65133,0.53565 l -3.74826,0.0616 z"
           id="path7456" /><g
           style="fill:#f59e0b"
           id="g7462"><path
             d="m 78.960337,105.05075 c -0.15088,0.0251 -0.22423,0.43692 -0.28799,0.70383 -0.0782,0.32717 -0.3262,0.5858 -0.76125,0.79375 -0.88127,0.42125 -0.90271,0.66893 -0.0936,1.08169 0.49504,0.25255 0.73538,0.51499 0.85564,0.93431 0.23934,0.83451 0.68871,0.84488 1.07485,0.0248 0.21085,-0.44779 0.53694,-0.77593 0.977,-0.98314 0.82806,-0.3899 0.84192,-0.75017 0.0391,-1.01514 -0.44282,-0.14614 -0.72094,-0.40013 -0.96762,-0.88365 -0.40874,-0.80121 -0.46346,-0.71856 -0.83607,-0.65646 z m -4.83946,0.28365 c -0.15154,-0.17337 -0.36557,-0.59613 -0.47562,-0.93947 -0.19531,-0.60935 -0.95375,-1.10191 -1.47598,-1.22782 -0.27887,-0.0672 -0.86406,-0.60873 -0.74754,-0.91237 0.0544,-0.1418 0.49041,-0.42322 0.96887,-0.62536 0.77247,-0.32636 0.91951,-0.47963 1.31238,-1.36798 0.37183,-0.840769 0.50644,-0.991368 0.84337,-0.943554 0.28837,0.04092 0.52073,0.316532 0.82771,0.981774 0.38028,0.82407 0.52446,0.96125 1.32292,1.25869 0.51766,0.19284 0.92127,0.4596 0.95568,0.63165 0.0827,0.4136 -0.41841,0.91662 -1.03624,1.04019 -0.64095,0.12819 -1.05951,0.59316 -1.40973,1.56604 -0.29937,0.8316 -0.66914,1.01489 -1.08582,0.53821 z"
             id="path7458" /><path
             d="m 65.766821,139.59097 c -0.436561,-0.0328 -2.103436,-0.17778 -3.704165,-0.32227 -1.60073,-0.14449 -3.448447,-0.31054 -4.106037,-0.369 l -1.195622,-0.10629 -0.0405,-9.15289 -0.01638,-3.70262 c -0.0261,-5.25515 -0.839499,-4.40523 4.407607,-5.52553 2.573249,-0.56623 4.748327,-0.83765 5.749901,-0.68608 1.110927,0.21914 0.925883,1.73868 0.948195,2.35691 0.0504,1.44744 0.06989,4.00615 0.07106,8.2363 l 0.0026,9.39271 -0.661458,-0.0308 c -0.363802,-0.017 -1.018646,-0.0576 -1.455209,-0.0904 z m 0.399112,-8.18603 c 0.483388,-0.59148 0.561617,-1.18959 0.242986,-1.85776 -0.729033,-1.5288 -3.111541,-0.98307 -3.111541,0.71271 0,0.64295 0.403735,1.29431 0.944915,1.52446 0.575471,0.24474 1.574609,0.0477 1.92364,-0.37941 z"
             id="path7460" /></g></g></g><text
       x="75"
       y="47"
       font-family="Nunito, Arial, sans-serif"
       font-size="34px"
       font-weight="700"
       fill="#0d9488"
       id="text7468">Hospedy</text></g></svg>
